<svg id="Layer_2" data-name="Layer 2" xmlns="http://www.w3.org/2000/svg" xmlns:xlink="http://www.w3.org/1999/xlink" viewBox="0 0 57 57.13"><defs><style>.cls-1{fill:#5b5b5b;}.cls-2{fill:#fff;}.cls-3{fill:#ffc82c;}</style><symbol id="MONOÇ" data-name="MONOÇ" viewBox="0 0 208.57 208.57"><path class="cls-1" d="M110.27,62.24S121.88,57,118,50.63c0,0,6.67,9.74,4.57,14.24S110.27,62.24,110.27,62.24Z"/><path class="cls-1" d="M82.72,155.13s-8.57.4-17.71,9.54-17.69,3.09-17.69,3.09l2,2.69a66,66,0,0,0,39.31,24.77h0a66,66,0,0,0,14.11,1.35l1.5,0h0l1.5,0a66,66,0,0,0,14.11-1.35h0a66,66,0,0,0,39.31-24.77l2-2.69s-8.55,6.05-17.69-3.09-17.71-9.54-17.71-9.54"/><path class="cls-1" d="M151.72,108.89c0,27.91-21.23,52.17-47.43,52.17s-47.43-24.27-47.43-52.17S78.1,60,104.29,60,151.72,81,151.72,108.89Z"/><path class="cls-1" d="M150.38,97.52s8.54-6.17,13.45,4.15-5.26,21.79-5.26,21.79-4.37,5.83-10.07,3.69S150.38,97.52,150.38,97.52Z"/><path class="cls-1" d="M58.14,97.52s-8.54-6.17-13.45,4.15S50,123.46,50,123.46s4.37,5.83,10.07,3.69S58.14,97.52,58.14,97.52Z"/><circle class="cls-2" cx="86.55" cy="99.1" r="17.74"/><circle class="cls-2" cx="122.03" cy="99.1" r="17.74"/><ellipse class="cls-2" cx="104.29" cy="129.49" rx="35.49" ry="31.6"/><circle class="cls-1" cx="122.03" cy="104.21" r="6.32"/><circle class="cls-1" cx="86.55" cy="104.21" r="6.32"/><path class="cls-1" d="M92.72,123.16c1.67-3.7,6.22-6.35,11.57-6.35s9.89,2.65,11.57,6.35"/><ellipse class="cls-3" cx="104.29" cy="161.06" rx="4.54" ry="5.22"/><path class="cls-3" d="M106.47,161.13a12.08,12.08,0,0,0,.49,3.16l0.29,0.77,4.83,2.2c2.07,0.94,4.22,1.9,6.46,1.74a3.65,3.65,0,0,0,3.29-2.06c0.48-1.24,0-2.66-.44-3.91a10.66,10.66,0,0,1-.54-1.94h0a10.66,10.66,0,0,1,.54-1.94c0.45-1.26.92-2.67,0.44-3.91a3.65,3.65,0,0,0-3.29-2.06c-2.23-.15-4.39.8-6.46,1.74l-4.83,2.2-0.29.77a12.08,12.08,0,0,0-.49,3.16v0.07Z"/><path class="cls-3" d="M102.14,161.13a12.08,12.08,0,0,1-.49,3.16l-0.29.77-4.83,2.2c-2.07.94-4.22,1.9-6.46,1.74A3.65,3.65,0,0,1,86.78,167c-0.48-1.24,0-2.66.44-3.91a10.66,10.66,0,0,0,.54-1.94h0a10.66,10.66,0,0,0-.54-1.94c-0.45-1.26-.92-2.67-0.44-3.91a3.65,3.65,0,0,1,3.29-2.06c2.23-.15,4.39.8,6.46,1.74l4.83,2.2,0.29,0.77a12.08,12.08,0,0,1,.49,3.16v0.07Z"/><path class="cls-1" d="M104.29,208.57A104.29,104.29,0,1,1,104.29,0a12,12,0,0,1,0,24,80.29,80.29,0,1,0,80.29,80.29,12,12,0,0,1,24,0A104.4,104.4,0,0,1,104.29,208.57Z"/></symbol></defs><title>logo</title><use id="MONOÇ-3" data-name="MONOÇ" width="208.57" height="208.57" transform="translate(2.93 2.37) scale(0.26)" xlink:href="#MONOÇ"/></svg>